<svg xmlns="http://www.w3.org/2000/svg" width="79.337" height="79.341" viewBox="0 0 79.337 79.341"><defs><style>.a{fill:#013367;}</style></defs><g transform="translate(-4.557 -4.557)"><path class="a" d="M72.031,79.763l-5.909,1.275a1.168,1.168,0,1,0,.493,2.283l5.909-1.275a1.168,1.168,0,1,0-.493-2.283Z" transform="translate(-20.173 -25.008)"/><path class="a" d="M44.848,91.685a7.358,7.358,0,1,0,8.742,5.642,7.358,7.358,0,0,0-8.742-5.642Zm2.61,12.1a5.022,5.022,0,1,1,3.85-5.969A5.023,5.023,0,0,1,47.458,103.786Z" transform="translate(-11.47 -28.928)"/><path class="a" d="M83.867,59.395l-1-4.621a1.168,1.168,0,0,0-1.388-.9l-4.4.949L69.214,18.333a1.169,1.169,0,0,0-1.387-.895l-23.4,5.045L31.332,25.308,27.055,5.479a1.169,1.169,0,0,0-1.142-.922H5.725A1.167,1.167,0,0,0,4.557,5.725v4.727A1.168,1.168,0,0,0,5.725,11.62h15.43l9.705,45A13.939,13.939,0,1,0,48.745,68.164l34.227-7.382a1.168,1.168,0,0,0,.9-1.387ZM38.031,56.372,33.882,37.143l11.954-2.578,1.754,8.126a1.166,1.166,0,0,0,.919.9,1.15,1.15,0,0,0,.222.021A1.168,1.168,0,0,0,49.7,43.1l3.141-4.645,4.4,2.979a1.168,1.168,0,0,0,1.8-1.211L57.284,32.1l11.954-2.578L74.8,55.32,46.022,61.526a14.014,14.014,0,0,0-7.99-5.154ZM52.941,23.037l1.814,8.409,1.385,6.42-2.958-2a1.169,1.169,0,0,0-1.622.313L49.3,39.523l-3.237-15Zm15.8,4.2L56.791,29.812l-1.568-7.267,11.954-2.578ZM43.778,25.013l1.568,7.268L33.392,34.86l-1.568-7.269ZM22.1,9.284H6.893V6.893H24.971l4.324,20.049,6.273,29.091a13.864,13.864,0,0,0-2.426.1l-9.9-45.923A1.168,1.168,0,0,0,22.1,9.284ZM37.379,81.3a11.612,11.612,0,1,1,8.9-13.795,11.612,11.612,0,0,1-8.9,13.795ZM48.257,65.881a13.84,13.84,0,0,0-.914-2.25l33.494-7.223.5,2.336Z"/></g></svg>