<svg xmlns="http://www.w3.org/2000/svg" width="73.762" height="61.468" viewBox="0 0 73.762 61.468"><defs><style>.a{fill:#013367;}</style></defs><g transform="translate(0 -42.666)"><g transform="translate(0 42.666)"><path class="a" d="M218.3,76.777l-1.537-2.305V70.327a6.153,6.153,0,0,0-6.147-6.147H197.153a1.537,1.537,0,0,1-1.375-2.224l4.934-9.869a6.51,6.51,0,0,0-5.823-9.421h-1.174a1.541,1.541,0,0,0-1.124.488L176.038,60.891a19.92,19.92,0,0,0-5.372,13.631V88.767a15.385,15.385,0,0,0,15.367,15.367h16.688a7.667,7.667,0,0,0,6.393-3.422l9.19-13.785a9.149,9.149,0,0,0,0-10.151Zm-2.557,8.446-9.19,13.785a4.6,4.6,0,0,1-3.836,2.053H186.033a12.308,12.308,0,0,1-12.294-12.294V74.521a16.846,16.846,0,0,1,4.547-11.533l16.1-17.249h.506a3.436,3.436,0,0,1,3.073,4.973l-4.934,9.869a4.61,4.61,0,0,0,4.124,6.672H210.62a3.077,3.077,0,0,1,3.073,3.073v4.61a1.538,1.538,0,0,0,.258.852l1.795,2.692a6.077,6.077,0,0,1,0,6.741Z" transform="translate(-146.079 -42.666)"/><path class="a" d="M15.367,192H6.147A6.153,6.153,0,0,0,0,198.147v27.661a6.153,6.153,0,0,0,6.147,6.147h9.22a6.153,6.153,0,0,0,6.147-6.147V198.147A6.153,6.153,0,0,0,15.367,192Zm3.073,33.808a3.077,3.077,0,0,1-3.073,3.073H6.147a3.077,3.077,0,0,1-3.073-3.073V198.147a3.077,3.077,0,0,1,3.073-3.073h9.22a3.077,3.077,0,0,1,3.073,3.073Z" transform="translate(0 -170.486)"/></g></g></svg>