<svg xmlns="http://www.w3.org/2000/svg" width="71.188" height="79.341" viewBox="0 0 71.188 79.341"><defs><style>.a{fill:#013367;}</style></defs><g transform="translate(-26.1)"><g transform="translate(26.1)"><g transform="translate(0)"><path class="a" d="M61.694,0a35.59,35.59,0,0,0-1.265,71.157v8.184l9.418-9.418-9.418-9.418v8.122A33.053,33.053,0,1,1,94.743,35.594h2.546A35.627,35.627,0,0,0,61.694,0Zm1.265,66.628,3.28,3.28-3.28,3.28Z" transform="translate(-26.1)"/></g></g><g transform="translate(42.624 16.524)"><path class="a" d="M131.9,105.8v38.14h38.14V105.8Zm15.259,2.546h7.622v5.092h-7.622Zm20.335,33.048H134.446V108.346h10.168v7.622h12.713v-7.622h10.168Z" transform="translate(-131.9 -105.8)"/></g><g transform="translate(67.504 38.765)"><g transform="translate(0)"><path class="a" d="M295.558,248.2l-4.358,4.889,1.905,1.687,1.187-1.328v5.56h2.546v-5.56l1.171,1.328,1.905-1.687Z" transform="translate(-291.2 -248.2)"/></g></g><g transform="translate(56.931 38.765)"><g transform="translate(0)"><path class="a" d="M227.858,248.2l-4.358,4.889,1.905,1.687,1.171-1.328v5.56h2.546v-5.56l1.187,1.328,1.89-1.687Z" transform="translate(-223.5 -248.2)"/></g></g></g></svg>